<?xml version="1.0" encoding="utf-8"?>
<svg width="17px" height="22px" viewBox="0 0 17 22" version="1.1" xmlns:xlink="http://www.w3.org/1999/xlink" xmlns="http://www.w3.org/2000/svg">
  <desc>Created with Lunacy</desc>
  <path d="M16.4414 8.77208C16.7844 6.47931 15.0387 5.24677 12.6517 4.42454L13.426 1.31869L11.5355 0.847538L10.7816 3.87154C10.2846 3.74769 9.77415 3.63085 9.26692 3.51508L10.0262 0.471154L8.13669 0L7.36185 3.10477C6.95046 3.01108 6.54662 2.91846 6.15461 2.821L6.15677 2.81131L3.54954 2.16031L3.04662 4.17954C3.04662 4.17954 4.44931 4.501 4.41969 4.52092C5.18538 4.71208 5.32377 5.21877 5.30062 5.62046L4.41862 9.15869C4.47138 9.17215 4.53977 9.19154 4.61515 9.22169C4.55215 9.20608 4.48485 9.18885 4.41538 9.17215L3.17908 14.1287C3.08538 14.3613 2.84792 14.7102 2.31269 14.5778C2.33154 14.6052 0.938538 14.2348 0.938538 14.2348L0 16.3988L2.46023 17.0122C2.91792 17.1268 3.36646 17.2469 3.808 17.36L3.02562 20.5014L4.914 20.9725L5.68885 17.8645C6.20469 18.0045 6.70546 18.1338 7.19546 18.2555L6.42331 21.3489L8.31385 21.8201L9.09623 18.6846C12.32 19.2947 14.7442 19.0486 15.7645 16.1328C16.5868 13.7852 15.7236 12.4309 14.0275 11.5478C15.2627 11.263 16.1932 10.4505 16.4414 8.77208L16.4414 8.77208ZM12.1218 14.8292C11.5376 17.1769 7.58477 15.9078 6.30323 15.5895L7.34138 11.4278C8.62292 11.7476 12.7325 12.3808 12.1218 14.8292ZM12.7066 8.73815C12.1735 10.8737 8.88354 9.78869 7.81631 9.52269L8.75754 5.74808C9.82477 6.01408 13.2618 6.51054 12.7066 8.73815Z" id="Shape" fill="#FFFFFF" stroke="none" />
</svg>